<?xml version="1.0" standalone="no"?>
<!DOCTYPE svg PUBLIC "-//W3C//DTD SVG 20010904//EN"
 "http://www.w3.org/TR/2001/REC-SVG-20010904/DTD/svg10.dtd">
<svg version="1.0" xmlns="http://www.w3.org/2000/svg"
 width="512.000000pt" height="512.000000pt" viewBox="0 0 512.000000 512.000000"
 preserveAspectRatio="xMidYMid meet">

<g transform="translate(0.000000,512.000000) scale(0.100000,-0.100000)"
   fill="#1E90FF" stroke="none">
<path d="M1600 4476 c-208 -45 -360 -228 -360 -433 l0 -68 88 -42 c116 -56
354 -230 630 -462 l62 -53 0 470 0 470 -31 27 c-48 40 -124 75 -198 91 -78 16
-117 16 -191 0z"/>
<path d="M1040 3864 c-193 -28 -311 -107 -387 -261 -37 -76 -38 -79 -38 -194
0 -116 0 -116 40 -194 l40 -77 180 -2 c133 -2 228 -10 365 -30 212 -31 496
-84 652 -121 59 -14 112 -25 118 -25 6 0 10 53 10 141 l0 141 -50 45 c-173
155 -503 415 -633 498 -92 58 -214 90 -297 79z"/>
<path d="M770 3013 c-14 -2 -52 -13 -85 -25 -118 -41 -208 -122 -263 -237 -31
-64 -37 -87 -40 -163 -6 -130 25 -229 104 -325 34 -41 148 -123 171 -123 7 0
34 16 60 36 139 106 724 334 1206 468 37 11 57 22 57 32 0 8 9 42 20 75 12 34
19 63 16 66 -19 19 -517 121 -766 157 -282 41 -407 51 -480 39z"/>
<path d="M1804 2475 c-278 -81 -696 -237 -899 -335 -197 -95 -295 -236 -295
-426 0 -191 121 -366 300 -431 70 -26 141 -36 190 -28 32 5 41 12 49 38 15 43
97 180 168 279 118 164 342 423 576 666 91 93 108 116 103 135 -3 12 -11 50
-18 85 -6 34 -14 62 -17 62 -3 -1 -74 -21 -157 -45z"/>
<path d="M1910 2069 c-288 -312 -549 -636 -618 -767 -107 -204 -44 -463 143
-586 147 -98 312 -109 470 -32 l70 35 1 163 c0 113 7 211 22 318 21 144 22
185 20 569 l-3 414 -105 -114z"/>
</g>
</svg>
